<?xml version="1.0" standalone="no"?>
<!DOCTYPE svg PUBLIC "-//W3C//DTD SVG 20010904//EN"
 "http://www.w3.org/TR/2001/REC-SVG-20010904/DTD/svg10.dtd">
<svg version="1.0" xmlns="http://www.w3.org/2000/svg"
 width="100.000000pt" height="100.000000pt" viewBox="0 0 100.000000 100.000000"
 preserveAspectRatio="xMidYMid meet">
<metadata>
Created by potrace 1.11, written by Peter Selinger 2001-2013
</metadata>
<g transform="translate(0.000000,100.000000) scale(0.100000,-0.100000)"
fill="#000000" stroke="none">
<path d="M0 500 l0 -500 500 0 500 0 0 500 0 500 -500 0 -500 0 0 -500z m475
446 c31 -13 35 -19 35 -50 0 -25 -6 -38 -19 -46 -29 -15 -30 -13 -24 24 4 27
1 36 -18 50 -31 21 -44 20 -97 -5 -58 -29 -132 -126 -132 -175 0 -39 29 -74
60 -74 12 0 35 7 52 16 41 21 93 11 116 -23 36 -57 4 -172 -78 -279 -66 -85
-176 -130 -254 -104 -47 15 -66 45 -73 112 -6 63 7 103 37 111 19 5 21 3 15
-16 -27 -84 -6 -117 73 -117 110 0 205 61 253 164 33 68 35 84 16 110 -19 26
-61 23 -106 -9 -105 -72 -214 -19 -198 96 12 94 105 181 227 213 70 19 74 19
115 2z m450 -136 c4 -6 2 -16 -3 -23 -21 -26 -84 -160 -107 -227 -14 -40 -38
-138 -56 -218 -34 -163 -64 -252 -83 -252 -34 0 -95 212 -112 390 l-7 75 -19
-40 c-10 -22 -41 -111 -70 -197 -28 -87 -53 -157 -55 -155 -1 2 24 102 57 222
33 120 60 227 60 237 0 25 30 98 41 98 4 0 13 -9 19 -20 14 -26 46 -217 61
-365 12 -122 22 -165 37 -165 5 0 23 75 41 167 44 225 117 450 155 475 16 11
34 10 41 -2z"/>
</g>
</svg>
